<svg xmlns="http://www.w3.org/2000/svg" viewBox="0 0 1390 665" width="1390" height="665">
<g fill="#F5F1E8"><g transform="translate(120.00,446.26) scale(0.46278,-0.46278)"><g transform="translate(-50.00,0)"><path d="M50 333Q50 515 138.5 609.5Q227 704 366.0 704.0Q505 704 587.5 622.0Q670 540 670.0 360.0Q670 180 582.0 88.0Q494 -4 347 -4Q220 -4 139 69Q97 107 73.5 174.5Q50 242 50 333ZM363.0 694.0Q262 694 197.5 604.0Q133 514 133.0 340.0Q133 166 194.0 86.0Q255 6 356.5 6.0Q458 6 522.5 96.5Q587 187 587.0 359.5Q587 532 525.5 613.0Q464 694 363.0 694.0Z"/></g><g transform="translate(800.00,0)"><path d="M439 658Q348 693 267.5 693.0Q187 693 142.0 659.0Q97 625 97 565Q97 492 173 452Q207 435 247.5 420.5Q288 406 329.0 388.0Q370 370 404.0 347.0Q438 324 459.0 283.5Q480 243 480.0 180.5Q480 118 445.0 74.0Q410 30 360.5 14.5Q311 -1 245 -1Q122 -1 35 60L40 68Q73 42 125.5 25.5Q178 9 233 9Q314 9 371.5 46.5Q429 84 429 157Q429 237 353 282Q319 302 278.5 319.0Q238 336 197.0 354.5Q156 373 122 396Q46 446 46 538Q46 611 95.0 656.5Q144 702 242.5 702.0Q341 702 443 668Z"/></g><g transform="translate(1445.00,0)"><path d="M70 690V700H248V690H199V10H248V0H70V10H116V690Z"/></g><g transform="translate(1893.00,0)"><path d="M42 0H30L329 700L340 705L592 0H507L429 220H137ZM298 592 141 230H426Z"/></g></g><g transform="translate(148.75,545.20) scale(0.05544,-0.05544)"><g transform="translate(-70.00,0)"><path d="M468 700V690H153V390H445V380H153V10H490V0H70V700Z"/></g><g transform="translate(875.00,0)"><path d="M450 0H70V700H153V10H450Z"/></g><g transform="translate(2495.00,0)"><path d="M42 0H30L329 700L340 705L592 0H507L429 220H137ZM298 592 141 230H426Z"/></g><g transform="translate(3537.00,0)"><path d="M70 692Q186 700 275 700Q522 700 522 535Q522 465 488.0 410.0Q454 355 371 337L571 0H478L282 331H153V0H70ZM275 690Q217 690 153 683V341H301Q442 347 442 533Q442 609 400.0 649.5Q358 690 275 690Z"/></g><g transform="translate(4558.00,0)"><path d="M286 0H203V690H30V700H460V690H286Z"/></g><g transform="translate(5468.00,0)"><path d="M468 700V690H153V390H445V380H153V10H490V0H70V700Z"/></g><g transform="translate(7133.00,0)"><path d="M150 699Q194 701 236.5 701.0Q279 701 326.5 692.0Q374 683 420.5 658.5Q467 634 499.5 595.5Q532 557 552.0 494.0Q572 431 572.0 341.0Q572 251 542.5 179.5Q513 108 462 70Q363 -4 223 -4Q174 -4 120 0H70V699ZM153 8Q174 6 206.0 6.0Q238 6 254.0 7.0Q270 8 298.0 15.5Q326 23 350.0 36.0Q374 49 400.5 74.5Q427 100 446 135Q489 217 489 349Q489 443 466.0 511.5Q443 580 413.5 613.0Q384 646 342.0 665.5Q300 685 275.0 688.0Q250 691 217.0 691.0Q184 691 153 688Z"/></g><g transform="translate(8175.00,0)"><path d="M468 700V690H153V390H445V380H153V10H490V0H70V700Z"/></g><g transform="translate(9840.00,0)"><path d="M450 0H70V700H153V10H450Z"/></g><g transform="translate(10740.00,0)"><path d="M50 333Q50 515 138.5 609.5Q227 704 366.0 704.0Q505 704 587.5 622.0Q670 540 670.0 360.0Q670 180 582.0 88.0Q494 -4 347 -4Q220 -4 139 69Q97 107 73.5 174.5Q50 242 50 333ZM363.0 694.0Q262 694 197.5 604.0Q133 514 133.0 340.0Q133 166 194.0 86.0Q255 6 356.5 6.0Q458 6 522.5 96.5Q587 187 587.0 359.5Q587 532 525.5 613.0Q464 694 363.0 694.0Z"/></g><g transform="translate(12600.00,0)"><path d="M468 700V690H153V390H445V380H153V10H490V0H70V700Z"/></g><g transform="translate(13545.00,0)"><path d="M439 658Q348 693 267.5 693.0Q187 693 142.0 659.0Q97 625 97 565Q97 492 173 452Q207 435 247.5 420.5Q288 406 329.0 388.0Q370 370 404.0 347.0Q438 324 459.0 283.5Q480 243 480.0 180.5Q480 118 445.0 74.0Q410 30 360.5 14.5Q311 -1 245 -1Q122 -1 35 60L40 68Q73 42 125.5 25.5Q178 9 233 9Q314 9 371.5 46.5Q429 84 429 157Q429 237 353 282Q319 302 278.5 319.0Q238 336 197.0 354.5Q156 373 122 396Q46 446 46 538Q46 611 95.0 656.5Q144 702 242.5 702.0Q341 702 443 668Z"/></g><g transform="translate(14480.00,0)"><path d="M468 700V690H153V390H445V380H153V10H490V0H70V700Z"/></g><g transform="translate(15425.00,0)"><path d="M78 0H65V700H99L515 53V700H528V0H455L78 580Z"/></g><g transform="translate(16438.00,0)"><path d="M399 -4Q212 -4 122 102Q90 140 70.0 203.0Q50 266 50.0 356.0Q50 446 79.5 517.5Q109 589 160 628Q259 701 399 701Q439 701 477.0 694.5Q515 688 534 681L552 674L549 664Q481 691 399 691Q293 691 222 622Q168 571 146 472Q133 416 133.0 335.0Q133 254 156.0 185.5Q179 117 208.5 84.0Q238 51 280.0 31.5Q322 12 347.0 9.0Q372 6 407.5 6.0Q443 6 488.0 13.0Q533 20 556 26L579 33L582 23Q506 -4 399 -4Z"/></g><g transform="translate(17475.00,0)"><path d="M70 690V700H248V690H199V10H248V0H70V10H116V690Z"/></g><g transform="translate(18213.00,0)"><path d="M42 0H30L329 700L340 705L592 0H507L429 220H137ZM298 592 141 230H426Z"/></g><g transform="translate(19255.00,0)"><path d="M450 0H70V700H153V10H450Z"/></g></g></g></svg>