<svg xmlns="http://www.w3.org/2000/svg" viewBox="0 0 1024 1024" width="1024" height="1024">
<rect width="1024" height="1024" rx="220" ry="220" fill="#0D0D0D"/>
<g fill="#CBB89A"><g transform="translate(245.76,302.74) scale(0.31139)"><g transform="translate(0.000000,1344.000000) scale(0.100000,-0.100000)"><path d="M8227 12822 c-12 -13 -17 -37 -17 -78 -1 -214 -79 -440 -187 -548
-70 -69 -130 -104 -203 -118 -72 -13 -90 -24 -90 -52 0 -33 20 -46 88 -56 80
-11 132 -40 202 -111 111 -112 176 -261 187 -429 7 -103 15 -122 51 -118 36 4
46 30 71 173 30 180 102 322 204 407 56 46 105 67 187 79 126 18 118 89 -11
104 -125 15 -245 116 -318 270 -48 99 -69 185 -86 343 -15 147 -35 181 -78
134z M8206 11217 c-13 -19 -16 -111 -18 -627 l-3 -605 -65 -32 c-36 -18 -82
-37 -103 -43 -20 -6 -53 -21 -71 -33 -19 -12 -47 -30 -62 -39 -83 -50 -184
-116 -212 -138 -213 -167 -285 -233 -386 -350 -120 -139 -185 -226 -220 -292
-14 -26 -30 -49 -35 -52 -5 -4 -15 -23 -21 -44 -7 -20 -20 -48 -29 -62 -17
-27 -50 -106 -86 -212 -13 -36 -30 -79 -38 -95 -8 -15 -22 -66 -31 -113 -9
-47 -23 -107 -32 -135 -26 -78 -31 -442 -10 -610 18 -140 54 -293 87 -378 12
-28 27 -70 34 -92 57 -174 177 -402 295 -560 16 -22 41 -57 55 -78 37 -54 291
-313 424 -431 172 -153 443 -386 450 -386 3 -1 28 -21 55 -45 50 -45 50 -45
28 -84 -22 -39 -22 -39 -22 -1549 0 -831 -3 -1517 -6 -1526 -5 -12 -20 -16
-63 -16 -41 0 -69 -7 -103 -25 -26 -14 -53 -25 -60 -25 -7 0 -41 -13 -75 -29
-34 -16 -83 -33 -110 -37 -26 -3 -80 -17 -120 -30 -104 -33 -458 -76 -592 -72
-119 4 -347 32 -431 52 -162 40 -265 69 -284 81 -11 7 -32 16 -46 20 -14 3
-52 20 -85 36 -33 15 -76 35 -95 44 -19 8 -42 19 -50 24 -8 6 -35 20 -60 31
-99 46 -207 110 -275 163 -27 21 -75 57 -105 79 -76 56 -422 407 -495 502 -33
43 -81 111 -107 150 -26 39 -55 82 -65 96 -10 13 -25 38 -34 55 -9 16 -32 57
-51 90 -19 33 -40 69 -46 80 -6 11 -18 36 -26 55 -8 19 -22 46 -30 60 -22 38
-83 172 -91 200 -4 14 -16 37 -26 51 -10 14 -21 38 -25 55 -4 16 -20 53 -35
83 -16 30 -29 60 -29 68 0 8 -13 45 -29 81 -16 37 -32 85 -36 107 -4 21 -13
52 -21 67 -8 15 -23 67 -33 115 -11 49 -28 126 -40 173 -51 215 -72 325 -86
450 -8 74 -22 187 -31 250 -26 174 -26 854 -1 1035 10 72 25 184 33 250 34
264 162 758 256 990 11 28 29 74 39 104 10 29 27 67 38 85 10 17 22 42 26 56
9 29 60 144 80 180 8 14 22 40 30 58 9 18 36 70 62 115 25 45 56 102 69 127
44 84 135 222 187 286 29 35 71 87 94 116 148 189 381 419 559 553 55 40 110
82 124 93 78 60 350 212 379 212 7 0 29 9 50 19 21 11 71 29 112 40 41 11 101
28 134 39 33 11 112 30 175 42 128 23 160 38 160 75 0 49 -46 53 -200 15 -41
-11 -114 -24 -162 -30 -48 -6 -102 -17 -121 -25 -19 -8 -67 -22 -108 -31 -40
-9 -92 -24 -114 -34 -23 -10 -61 -21 -85 -25 -25 -4 -75 -20 -112 -36 -36 -16
-73 -29 -80 -29 -8 0 -37 -11 -64 -25 -27 -14 -67 -30 -89 -36 -22 -6 -51 -19
-65 -29 -14 -10 -42 -22 -62 -28 -21 -6 -50 -19 -65 -30 -15 -11 -39 -23 -53
-27 -14 -4 -46 -20 -71 -36 -25 -16 -50 -29 -55 -29 -5 0 -28 -13 -50 -28 -23
-15 -55 -35 -70 -44 -16 -10 -48 -30 -71 -45 -22 -16 -76 -51 -120 -80 -92
-61 -133 -91 -216 -159 -34 -27 -72 -57 -85 -66 -106 -73 -466 -438 -580 -589
-22 -30 -58 -77 -79 -104 -21 -28 -54 -75 -74 -105 -20 -30 -44 -68 -55 -84
-53 -81 -137 -217 -162 -266 -59 -113 -121 -237 -146 -290 -51 -111 -130 -325
-155 -425 -9 -38 -23 -80 -29 -92 -7 -12 -19 -52 -27 -90 -8 -37 -26 -117 -40
-178 -13 -60 -31 -159 -40 -220 -8 -60 -21 -137 -27 -170 -17 -84 -17 -885 -1
-980 102 -596 148 -772 273 -1055 20 -47 46 -105 56 -130 66 -156 202 -409
300 -554 83 -123 84 -125 134 -190 25 -32 55 -72 67 -89 12 -17 26 -33 31 -36
5 -3 56 -60 114 -126 172 -195 397 -403 547 -505 28 -19 69 -48 91 -65 38 -29
67 -50 140 -99 19 -13 71 -45 115 -71 44 -26 91 -55 105 -64 24 -16 140 -73
270 -133 36 -17 88 -41 115 -54 69 -33 193 -80 235 -89 19 -4 49 -14 65 -23
17 -8 66 -21 110 -29 44 -7 143 -29 220 -48 77 -18 167 -37 200 -40 33 -4 87
-14 120 -23 90 -25 722 -25 810 0 33 9 101 22 150 28 50 6 124 22 165 35 41
13 122 38 180 56 88 27 111 39 151 76 26 24 50 40 53 35 3 -5 6 -222 6 -483 1
-474 1 -474 -26 -589 -65 -277 -152 -403 -295 -429 -73 -12 -89 -24 -89 -62 0
-38 30 -57 102 -65 56 -6 62 -10 128 -76 99 -99 133 -161 164 -294 14 -61 29
-151 32 -200 8 -100 16 -124 44 -124 28 0 36 24 44 121 3 47 19 137 35 200 39
150 85 233 174 312 63 56 71 61 125 65 132 10 121 93 -18 122 -54 12 -68 20
-130 81 -39 37 -70 74 -70 81 0 8 -9 32 -21 53 -11 22 -35 114 -53 205 -33
165 -33 165 -30 679 2 283 6 517 9 520 3 2 11 -1 17 -7 21 -21 79 -13 147 22
36 19 86 44 111 55 231 106 547 416 769 754 8 12 25 39 39 59 76 116 187 362
206 458 4 19 16 62 26 95 11 33 24 89 30 125 6 36 20 115 32 175 34 179 32
455 -5 645 -28 142 -84 330 -111 373 -8 12 -19 40 -26 62 -7 22 -21 51 -30 65
-9 14 -23 42 -29 62 -7 21 -17 40 -22 44 -5 3 -21 26 -35 52 -86 162 -236 345
-464 570 -133 131 -188 180 -418 371 -42 35 -112 96 -154 136 l-76 73 -3 518
c-3 596 0 1920 6 2288 4 208 7 252 20 265 16 16 155 67 275 100 36 10 92 28
125 39 33 11 96 23 140 27 44 4 114 13 155 21 98 18 350 18 460 0 47 -8 120
-18 164 -21 43 -4 104 -16 135 -26 31 -11 85 -27 121 -35 65 -16 305 -107 326
-125 7 -5 38 -23 70 -40 155 -79 284 -172 509 -365 180 -156 290 -271 415
-438 19 -26 50 -65 68 -87 17 -23 32 -44 32 -49 0 -4 12 -23 28 -43 15 -19 35
-48 44 -64 10 -15 45 -71 77 -123 55 -87 183 -336 243 -470 89 -199 124 -287
149 -374 11 -38 25 -78 31 -89 16 -30 57 -178 83 -302 13 -60 29 -123 35 -140
6 -16 18 -82 26 -147 8 -65 21 -146 28 -180 27 -119 41 -367 41 -738 0 -387
-13 -599 -45 -760 -11 -52 -24 -133 -30 -180 -16 -139 -119 -580 -151 -650 -6
-14 -21 -59 -34 -100 -42 -134 -72 -215 -94 -250 -11 -19 -21 -41 -21 -49 0
-8 -13 -41 -29 -75 -73 -153 -125 -256 -158 -316 -19 -36 -44 -81 -54 -100
-131 -241 -422 -587 -671 -799 -169 -143 -217 -181 -230 -181 -6 0 -25 -12
-43 -28 -17 -15 -47 -36 -65 -47 -19 -11 -56 -34 -84 -52 -59 -36 -209 -113
-222 -113 -5 0 -29 -11 -54 -24 -25 -13 -61 -27 -80 -31 -19 -4 -56 -18 -81
-30 -25 -13 -74 -29 -109 -35 -35 -6 -77 -18 -92 -26 -16 -8 -66 -20 -111 -26
-112 -14 -127 -21 -127 -57 0 -45 19 -54 86 -42 32 6 79 11 106 11 27 0 74 9
106 20 31 12 88 27 125 35 38 8 78 20 90 27 12 6 56 22 97 34 41 12 117 38
168 57 51 19 109 38 129 42 20 3 45 12 57 20 12 7 38 16 58 19 21 4 85 29 142
55 57 27 114 52 127 56 30 9 231 119 284 155 40 28 168 113 208 139 148 96
332 248 556 460 177 167 386 414 505 596 22 33 51 78 66 100 152 227 334 605
407 845 14 47 38 128 54 180 16 52 37 131 46 175 9 44 24 108 34 142 11 34 28
122 39 195 11 73 27 169 35 213 17 94 21 580 5 685 -6 36 -19 144 -30 240 -21
191 -53 342 -125 600 -31 110 -61 202 -86 265 -11 28 -27 72 -36 99 -8 27 -21
59 -29 70 -7 12 -20 41 -28 64 -9 24 -24 55 -34 70 -11 15 -24 42 -30 60 -6
18 -20 45 -30 60 -11 15 -23 38 -27 52 -4 14 -20 43 -36 64 -16 22 -29 44 -29
49 0 6 -24 46 -54 91 -29 44 -62 95 -72 113 -125 208 -398 540 -605 734 -170
161 -269 242 -444 364 -271 189 -319 220 -415 266 -25 12 -57 30 -72 41 -15
10 -42 24 -60 30 -18 6 -44 19 -58 28 -25 16 -78 38 -220 89 -41 15 -88 34
-105 43 -16 8 -48 19 -70 23 -22 3 -60 15 -85 25 -77 31 -230 72 -342 90 -59
10 -138 25 -175 34 -171 38 -765 39 -903 1 -30 -8 -95 -22 -145 -30 -105 -17
-237 -56 -312 -92 -96 -45 -87 -97 -93 565 -5 563 -6 584 -24 598 -30 22 -73
18 -90 -9z m-14 -1632 c10 -342 -1 -2619 -12 -2623 -13 -5 -217 176 -310 274
-150 158 -360 459 -360 516 0 7 -11 33 -24 58 -13 25 -29 72 -36 105 -6 33
-22 94 -35 135 -46 152 -57 510 -21 676 35 159 74 275 142 421 19 39 34 74 34
76 0 34 162 246 277 364 99 100 294 246 323 241 13 -3 16 -42 22 -243z m259
-4062 c126 -130 221 -232 271 -294 70 -85 84 -104 112 -153 63 -105 105 -200
153 -346 13 -41 31 -90 38 -107 42 -95 85 -484 67 -598 -31 -195 -75 -369
-124 -490 -11 -27 -27 -70 -36 -95 -8 -25 -26 -61 -39 -80 -13 -19 -23 -40
-23 -46 0 -10 -13 -32 -108 -178 -61 -93 -446 -474 -459 -454 -3 5 -2 33 1 61
4 29 7 694 8 1480 1 785 4 1427 7 1427 4 0 63 -57 132 -127z"/></g></g></g></svg>